<svg id="Layer_3" enable-background="new 0 0 64 64" height="512" viewBox="0 0 64 64" width="512" xmlns="http://www.w3.org/2000/svg"><path d="m6 2h52v4h-52z" fill="#71b38e"/><path d="m4 6h56v4h-56z" fill="#55866b"/><path d="m2 10h60v42h-60z" fill="#71b38e"/><path d="m20 14h32c0 3.314 2.686 6 6 6v22c-3.314 0-6 2.686-6 6h-40c0-3.314-2.686-6-6-6v-14z" fill="#f1f1f1"/><path d="m2 32 22-22h-8l-14 14z" fill="#f8cf6a"/><path d="m21 18h22v4h-22z" fill="#ba9b50"/><g fill="#f8cf6a"><path d="m21 18h19v4h-19z"/><circle cx="41" cy="42" r="8"/><path d="m41 50c-1.893 0-3.63-.661-5-1.76v13.76l5-5 5 5v-13.76c-1.37 1.099-3.107 1.76-5 1.76z"/></g><circle cx="41" cy="42" fill="#8b743c" r="4"/><ellipse cx="39.5" cy="42" fill="#ba9b50" rx="2.5" ry="3.703"/><path d="m62 53h-16v-2h15v-40h-58v40h33v2h-34c-.553 0-1-.448-1-1v-42c0-.552.447-1 1-1h60c.553 0 1 .448 1 1v42c0 .552-.447 1-1 1z"/><path d="m-.899 16h19.799v2h-19.799z" transform="matrix(.707 -.707 .707 .707 -9.385 11.343)"/><path d="m-2.556 20h31.113v2h-31.113z" transform="matrix(.707 -.707 .707 .707 -11.042 15.343)"/><path d="m41 47c-2.757 0-5-2.243-5-5s2.243-5 5-5 5 2.243 5 5-2.243 5-5 5zm0-8c-1.654 0-3 1.346-3 3s1.346 3 3 3 3-1.346 3-3-1.346-3-3-3z"/><path d="m41 51c-4.963 0-9-4.038-9-9s4.037-9 9-9 9 4.038 9 9-4.037 9-9 9zm0-16c-3.859 0-7 3.14-7 7s3.141 7 7 7 7-3.14 7-7-3.141-7-7-7z"/><path d="m46 63c-.26 0-.516-.102-.707-.293l-4.293-4.293-4.293 4.293c-.287.287-.717.372-1.09.217-.374-.155-.617-.52-.617-.924v-14h2v11.586l3.293-3.293c.391-.391 1.023-.391 1.414 0l3.293 3.293v-11.586h2v14c0 .404-.243.769-.617.924-.124.051-.254.076-.383.076z"/><path d="m36 49h-24c-.553 0-1-.448-1-1 0-2.757-2.243-5-5-5-.553 0-1-.448-1-1v-14h2v13.071c3.062.44 5.489 2.868 5.929 5.929h23.071z"/><path d="m52 49h-6v-2h5.071c.439-3.061 2.867-5.489 5.929-5.929v-20.142c-3.062-.44-5.489-2.868-5.929-5.929h-31.071v-2h32c.553 0 1 .448 1 1 0 2.757 2.243 5 5 5 .553 0 1 .448 1 1v22c0 .552-.447 1-1 1-2.757 0-5 2.243-5 5 0 .552-.447 1-1 1z"/><path d="m43 23h-22c-.553 0-1-.448-1-1v-4c0-.552.447-1 1-1h22c.553 0 1 .448 1 1v4c0 .552-.447 1-1 1zm-21-2h20v-2h-20z"/><path d="m13 29h38v2h-38z"/><path d="m13 25h38v2h-38z"/><path d="m13 33h20v2h-20z"/><path d="m13 37h17v2h-17z"/><path d="m13 41h17v2h-17z"/><path d="m61 10h-2v-3h-54v3h-2v-4c0-.552.447-1 1-1h56c.553 0 1 .448 1 1z"/><path d="m59 6h-2v-3h-50v3h-2v-4c0-.552.447-1 1-1h52c.553 0 1 .448 1 1z"/></svg>